<svg width="32" height="32" viewBox="0 0 32 32" fill="none" xmlns="http://www.w3.org/2000/svg">
<path fill-rule="evenodd" clip-rule="evenodd" d="M16 0C7.16262 0 0 7.16262 0 16C0 23.068 4.58312 29.066 10.942 31.1835C11.7425 31.3279 12.0313 30.8354 12.0313 30.4119C12.0313 30.0317 12.0184 29.0243 12.0136 27.6912C7.56206 28.6569 6.62202 25.5448 6.62202 25.5448C5.89693 23.6968 4.8462 23.2043 4.8462 23.2043C3.39443 22.2113 4.95689 22.2338 4.95689 22.2338C6.56427 22.3461 7.40646 23.8829 7.40646 23.8829C8.83417 26.3277 11.1538 25.6218 12.0618 25.2128C12.2077 24.1781 12.6248 23.4722 13.0804 23.0728C9.52878 22.6701 5.79426 21.297 5.79426 15.1642C5.79426 13.4205 6.41829 11.9896 7.43694 10.8731C7.27491 10.4672 6.72148 8.83898 7.59575 6.63806C7.59575 6.63806 8.93844 6.20654 11.9944 8.27592C13.2995 7.92087 14.6458 7.73964 15.9984 7.73692C17.351 7.73911 18.6974 7.92035 20.0024 8.27592C23.06 6.20493 24.401 6.63806 24.401 6.63806C25.2753 8.83898 24.7267 10.4672 24.5599 10.8731C25.5865 11.9896 26.2025 13.4189 26.2025 15.1642C26.2025 21.313 22.4648 22.6637 18.9003 23.06C19.4698 23.554 19.9832 24.5294 19.9832 26.0213C19.9832 28.1612 19.9639 29.8873 19.9639 30.4119C19.9639 30.8402 20.2494 31.3375 21.066 31.1803C27.4217 29.0596 32 23.0664 32 16C32 7.16262 24.8374 0 16 0Z" fill="white"/>
</svg>
