<svg width="32" height="30" viewBox="0 0 32 30" fill="none" xmlns="http://www.w3.org/2000/svg">
<path d="M4.17195 0.389008C2.77613 1.22254 0.0260828 4.39993 0 5.2332V6.6125C0 8.36088 1.62496 9.89758 3.10034 9.89758C4.87188 9.89758 6.34791 8.42096 6.34804 6.66837C6.34804 8.42096 7.77347 9.89758 9.54515 9.89758C11.317 9.89758 12.6966 8.42096 12.6966 6.66837C12.6966 8.42096 14.2123 9.89758 15.984 9.89758H16.016C17.7878 9.89758 19.3035 8.42096 19.3035 6.66837C19.3035 8.42096 20.6833 9.89758 22.4549 9.89758C24.2265 9.89758 25.652 8.42096 25.652 6.66837C25.652 8.42096 27.1282 9.89758 28.8997 9.89758C30.375 9.89758 32 8.36115 32 6.6125V5.2332C31.9739 4.3998 29.2239 1.22228 27.8283 0.389008C23.49 0.235812 20.4823 0.209317 15.9999 0.209973C11.5175 0.210366 5.40658 0.2808 4.17169 0.389008H4.17195ZM12.6742 9.07414C12.5048 9.37113 12.295 9.64285 12.0508 9.88144C11.382 10.5391 10.4654 10.9467 9.45477 10.9467C8.48231 10.9477 7.54828 10.565 6.85327 9.88092C6.61096 9.6422 6.42681 9.38696 6.25819 9.08975L6.25741 9.09028C6.08891 9.38801 5.85416 9.64312 5.61133 9.8821C4.91606 10.5657 3.98213 10.948 3.00983 10.9471C2.88802 10.9471 2.76126 10.9133 2.65875 10.8779C2.51634 12.3694 2.45622 13.7949 2.43496 14.8342L2.4347 14.8401C2.4321 15.3679 2.42949 15.8019 2.42688 16.4049C2.45427 19.5344 2.11871 26.5482 3.79884 28.2715C6.40243 28.882 11.1933 29.1601 15.9997 29.1618H16.0005C20.8068 29.1601 25.5977 28.882 28.2013 28.2715C29.8814 26.548 29.5459 19.5343 29.5733 16.4048C29.5704 15.8019 29.568 15.3679 29.5654 14.84L29.565 14.8341C29.5439 13.7945 29.4838 12.3692 29.3414 10.8776C29.2389 10.913 29.1122 10.9469 28.9903 10.9469C28.018 10.9477 27.0841 10.5654 26.3888 9.88184C26.146 9.64286 25.9112 9.38788 25.7426 9.09001L25.7418 9.08949C25.5731 9.3867 25.389 9.64207 25.1467 9.88066C24.4517 10.5647 23.5178 10.9473 22.5454 10.9463C21.5349 10.9463 20.6181 10.5384 19.9493 9.88092C19.7052 9.64233 19.4953 9.3706 19.326 9.07362C19.1584 9.37028 18.9505 9.64199 18.7083 9.88092C18.0131 10.5649 17.079 10.9474 16.1065 10.9465C16.0713 10.9465 16.0361 10.9449 16.0009 10.9439H16C15.9648 10.9449 15.9296 10.9465 15.894 10.9465C14.9215 10.9475 13.9874 10.5649 13.2922 9.88105C13.05 9.64212 12.8422 9.37041 12.6746 9.07375L12.6742 9.07414ZM10.0025 12.5486L10.0022 12.5499H10.0042C11.0623 12.5522 12.0022 12.5499 13.1668 13.8282C14.0833 13.7316 15.0411 13.6833 15.9996 13.6847H16.0004C16.9589 13.6834 17.9167 13.7316 18.8334 13.8282C19.998 12.5498 20.9379 12.552 21.9959 12.5499H21.9978L21.9975 12.5486C22.4974 12.5486 24.497 12.5486 25.8904 16.4844L27.387 21.8837C28.496 25.9004 27.0319 25.9986 25.2055 26.0021C22.4971 25.9007 20.9975 23.9226 20.9975 21.9446C19.4982 22.1918 17.7492 22.3153 16.0003 22.3154H15.9995C14.2504 22.3154 12.5014 22.1918 11.0023 21.9446C11.0023 23.9226 9.5025 25.9007 6.79419 26.0021C4.96787 25.9986 3.50384 25.9005 4.61288 21.8837L6.10991 16.4845C7.50325 12.5487 9.50289 12.5487 10.0028 12.5487L10.0025 12.5486ZM15.9996 15.6417V15.6425C15.997 15.6451 13.1484 18.2762 12.6362 19.212L14.5017 19.1369V20.773C14.5017 20.8496 15.2502 20.8184 15.9996 20.7835H16.0004C16.7495 20.8184 17.4982 20.8496 17.4982 20.773V19.1369L19.3636 19.212C18.8514 18.2762 16.0003 15.6425 16.0003 15.6425V15.6417L15.9999 15.6419L15.9996 15.6417Z" fill="white"/>
</svg>
