<svg width="32" height="33" viewBox="0 0 32 33" fill="none" xmlns="http://www.w3.org/2000/svg">
<path d="M30.2222 0.161865H1.77778C1.30628 0.161865 0.854097 0.349166 0.520699 0.682564C0.187301 1.01596 0 1.46815 0 1.93964V30.3841C0 30.8556 0.187301 31.3078 0.520699 31.6412C0.854097 31.9746 1.30628 32.1619 1.77778 32.1619H30.2222C30.6937 32.1619 31.1459 31.9746 31.4793 31.6412C31.8127 31.3078 32 30.8556 32 30.3841V1.93964C32 1.46815 31.8127 1.01596 31.4793 0.682564C31.1459 0.349166 30.6937 0.161865 30.2222 0.161865V0.161865ZM9.49156 27.4276H4.74133V12.1565H9.49156V27.4276ZM7.11644 10.0712C6.38657 10.0712 5.68659 9.78126 5.17049 9.26516C4.65439 8.74906 4.36444 8.04907 4.36444 7.3192C4.36444 6.58932 4.65439 5.88934 5.17049 5.37324C5.68659 4.85714 6.38657 4.5672 7.11644 4.5672C7.84632 4.5672 8.5463 4.85714 9.0624 5.37324C9.5785 5.88934 9.86844 6.58932 9.86844 7.3192C9.86844 8.04907 9.5785 8.74906 9.0624 9.26516C8.5463 9.78126 7.84632 10.0712 7.11644 10.0712V10.0712ZM27.2676 27.4276H22.5227V20.0019C22.5227 18.2312 22.4907 15.9539 20.0551 15.9539C17.584 15.9539 17.2089 17.8845 17.2089 19.8774V27.4294H12.4676V12.1583H17.0187V14.2454H17.0844C17.7156 13.0454 19.2658 11.7796 21.5716 11.7796C26.3787 11.7796 27.2658 14.9405 27.2658 19.0543V27.4276H27.2676Z" fill="white"/>
</svg>
