<svg width="32" height="27" viewBox="0 0 32 27" fill="none" xmlns="http://www.w3.org/2000/svg">
<path d="M28.7124 6.68987C28.7336 6.97705 28.7336 7.26258 28.7336 7.54812C28.7336 16.2866 22.1339 26.3559 10.0729 26.3559C6.35701 26.3559 2.90495 25.2712 0 23.3873C0.52758 23.448 1.03562 23.4694 1.58437 23.4694C4.53652 23.4765 7.40508 22.4817 9.72766 20.6451C8.35892 20.6202 7.03208 20.1651 5.9324 19.3434C4.83273 18.5217 4.01512 17.3744 3.59373 16.0618C3.99919 16.1225 4.40627 16.1635 4.83289 16.1635C5.42072 16.1635 6.0118 16.0815 6.56055 15.9387C5.07512 15.6364 3.73942 14.825 2.78057 13.6424C1.82172 12.4597 1.29891 10.9789 1.30104 9.45171V9.36966C2.17545 9.86033 3.1899 10.1672 4.2646 10.2082C3.36428 9.60529 2.62605 8.78713 2.11576 7.82675C1.60547 6.86637 1.339 5.79363 1.34012 4.70423C1.34012 3.47674 1.66416 2.35099 2.23244 1.36966C3.88054 3.41277 5.93609 5.08422 8.26597 6.27577C10.5958 7.46731 13.1481 8.15237 15.7574 8.28658C15.6564 7.79428 15.5945 7.28392 15.5945 6.77192C15.5941 5.90375 15.7635 5.04401 16.0929 4.24185C16.4224 3.43969 16.9055 2.71083 17.5147 2.09694C18.1238 1.48306 18.847 0.996181 19.643 0.664148C20.4389 0.332114 21.292 0.161435 22.1535 0.161866C24.0423 0.161866 25.7472 0.959404 26.9457 2.24925C28.414 1.96308 29.8222 1.42287 31.1077 0.652532C30.6182 2.18003 29.5929 3.47527 28.2239 4.29561C29.5262 4.14591 30.799 3.80076 32 3.27161C31.103 4.58951 29.9915 5.7452 28.7124 6.68987V6.68987Z" fill="white"/>
</svg>
